<svg xmlns="http://www.w3.org/2000/svg" xmlns:xlink="http://www.w3.org/1999/xlink" viewBox="0 0 604.73 155.47"><defs><style>.cls-1{fill:#cfcece;}.cls-2{fill:#848383;}.cls-3{fill:url(#radial-gradient);}.cls-4{fill:url(#radial-gradient-2);}.cls-5{fill:url(#radial-gradient-3);}.cls-6{fill:url(#radial-gradient-4);}.cls-7{fill:url(#radial-gradient-5);}.cls-8{fill:url(#radial-gradient-6);}.cls-9{fill:url(#radial-gradient-7);}.cls-10{fill:url(#radial-gradient-8);}.cls-11{fill:url(#radial-gradient-9);}.cls-12{fill:url(#radial-gradient-10);}.cls-13{fill:url(#radial-gradient-11);}.cls-14{fill:url(#radial-gradient-12);}.cls-15{fill:url(#radial-gradient-13);}.cls-16{fill:url(#radial-gradient-14);}.cls-17{fill:url(#radial-gradient-15);}</style><radialGradient id="radial-gradient" cx="101.72" cy="369.38" r="81.8" gradientTransform="translate(162.76 404.25) rotate(180)" gradientUnits="userSpaceOnUse"><stop offset="0" stop-color="#00a8de"/><stop offset="0.2" stop-color="#333391"/><stop offset="0.4" stop-color="#e91388"/><stop offset="0.6" stop-color="#eb2d2e"/><stop offset="0.8" stop-color="#fde92b"/><stop offset="1" stop-color="#009e54"/></radialGradient><radialGradient id="radial-gradient-2" cx="101.72" cy="369.38" r="81.8" xlink:href="#radial-gradient"/><radialGradient id="radial-gradient-3" cx="101.72" cy="369.38" r="81.8" xlink:href="#radial-gradient"/><radialGradient id="radial-gradient-4" cx="101.72" cy="369.38" r="81.8" xlink:href="#radial-gradient"/><radialGradient id="radial-gradient-5" cx="101.72" cy="369.38" r="81.8" xlink:href="#radial-gradient"/><radialGradient id="radial-gradient-6" cx="101.72" cy="369.38" r="81.8" xlink:href="#radial-gradient"/><radialGradient id="radial-gradient-7" cx="101.72" cy="369.38" r="81.79" xlink:href="#radial-gradient"/><radialGradient id="radial-gradient-8" cx="101.72" cy="369.38" r="81.8" xlink:href="#radial-gradient"/><radialGradient id="radial-gradient-9" cx="101.72" cy="369.38" r="81.8" xlink:href="#radial-gradient"/><radialGradient id="radial-gradient-10" cx="101.72" cy="369.38" r="81.81" xlink:href="#radial-gradient"/><radialGradient id="radial-gradient-11" cx="101.72" cy="369.38" r="81.81" xlink:href="#radial-gradient"/><radialGradient id="radial-gradient-12" cx="101.72" cy="369.38" r="81.8" xlink:href="#radial-gradient"/><radialGradient id="radial-gradient-13" cx="101.72" cy="369.38" r="81.81" xlink:href="#radial-gradient"/><radialGradient id="radial-gradient-14" cx="101.72" cy="369.38" r="81.8" xlink:href="#radial-gradient"/><radialGradient id="radial-gradient-15" cx="101.72" cy="369.38" r="81.8" xlink:href="#radial-gradient"/></defs><title>Asset 1</title><g id="Layer_2" data-name="Layer 2"><g id="Layer_1-2" data-name="Layer 1"><path class="cls-1" d="M175.14,41.47h9.35V74.85h16.38v7.82H175.14Z"/><path class="cls-1" d="M241.77,61.65c0,13.5-8.19,21.7-20.24,21.7-12.22,0-19.37-9.24-19.37-21C202.16,50,210,40.8,222.21,40.8,234.86,40.8,241.77,50.27,241.77,61.65ZM212,62.19C212,70.26,215.79,76,222,76s9.91-6,9.91-14c0-7.4-3.55-13.75-10-13.75S212,54.19,212,62.19Z"/><path class="cls-1" d="M247.88,42a81.82,81.82,0,0,1,12.41-.85c6.11,0,10.39.92,13.32,3.24A10.44,10.44,0,0,1,277.4,53a10.93,10.93,0,0,1-7.27,10.14v.19c2.87,1.16,4.46,3.91,5.5,7.7,1.29,4.64,2.57,10,3.36,11.61h-9.53c-.68-1.16-1.65-4.52-2.88-9.59s-2.87-6.55-6.66-6.61h-2.81v16.2h-9.23Zm9.23,17.73h3.67c4.64,0,7.39-2.32,7.39-5.93,0-3.79-2.56-5.68-6.84-5.74a23.61,23.61,0,0,0-4.22.3Z"/><path class="cls-1" d="M308.64,65.25H293.48V75h16.93v7.64H284.13V41.47h25.42v7.64H293.48v8.56h15.16Z"/><path class="cls-1" d="M351.61,66.9c-.18-5-.37-10.94-.37-16.93h-.18c-1.28,5.26-3,11.13-4.58,16l-5,16.08h-7.27l-4.4-16c-1.35-4.83-2.75-10.7-3.73-16.08h-.12c-.25,5.56-.43,11.92-.74,17l-.73,15.65h-8.62l2.63-41.2h12.41l4,13.76c1.29,4.76,2.57,9.9,3.49,14.73h.18c1.16-4.77,2.57-10.21,3.91-14.79l4.4-13.7h12.17l2.26,41.2h-9.11Z"/><path class="cls-1" d="M390.18,41.47v41.2h-9.35V41.47Z"/><path class="cls-1" d="M433.09,66.9c-.18-5-.37-10.94-.37-16.93h-.18c-1.28,5.26-3,11.13-4.59,16l-5,16.08h-7.27l-4.4-16c-1.35-4.83-2.75-10.7-3.73-16.08h-.12c-.25,5.56-.43,11.92-.74,17L406,82.67h-8.62L400,41.47h12.41l4,13.76C417.69,60,419,65.13,419.89,70h.18c1.16-4.77,2.57-10.21,3.91-14.79l4.4-13.7h12.17l2.26,41.2H433.7Z"/><path class="cls-1" d="M450,42a76.28,76.28,0,0,1,12.59-.85c5.75,0,9.84,1.1,12.59,3.3a12,12,0,0,1,4.4,9.53,13.13,13.13,0,0,1-3.79,9.78c-3.17,3-7.88,4.34-13.38,4.34a23.88,23.88,0,0,1-3.18-.18V82.67H450Zm9.23,18.71a14.47,14.47,0,0,0,3.12.24c4.95,0,8-2.5,8-6.72,0-3.79-2.62-6-7.27-6a16.16,16.16,0,0,0-3.85.36Z"/><path class="cls-1" d="M485.78,73.08a23.81,23.81,0,0,0,10.33,2.56c4.28,0,6.54-1.77,6.54-4.46s-2-4-6.91-5.81C488.9,63,484.43,59.2,484.43,53.21c0-7,5.87-12.41,15.59-12.41a25.19,25.19,0,0,1,10.51,2.08l-2.07,7.52a19.52,19.52,0,0,0-8.62-2c-4,0-6,1.83-6,4,0,2.62,2.32,3.78,7.64,5.8,7.27,2.69,10.7,6.48,10.7,12.29,0,6.91-5.32,12.77-16.63,12.77a27.06,27.06,0,0,1-11.68-2.5Z"/><path class="cls-1" d="M527.77,41.47V65.19c0,7.09,2.69,10.7,7.46,10.7s7.58-3.43,7.58-10.7V41.47h9.29V64.58c0,12.71-6.42,18.77-17.18,18.77-10.39,0-16.5-5.75-16.5-18.89v-23Z"/><path class="cls-1" d="M595,66.9c-.18-5-.37-10.94-.37-16.93h-.18c-1.28,5.26-3,11.13-4.59,16l-5,16.08h-7.27l-4.4-16c-1.35-4.83-2.75-10.7-3.73-16.08h-.12c-.25,5.56-.43,11.92-.74,17l-.73,15.65h-8.62l2.63-41.2h12.41l4,13.76c1.29,4.76,2.57,9.9,3.49,14.73H582c1.16-4.77,2.57-10.21,3.91-14.79l4.4-13.7h12.17l2.26,41.2h-9.11Z"/><path class="cls-2" d="M216,95.9a34.93,34.93,0,0,1,5.13-.38c3.47,0,5.94.8,7.58,2.33a8.58,8.58,0,0,1,2.64,6.71,9.92,9.92,0,0,1-2.7,7.28c-1.74,1.74-4.63,2.69-8.27,2.69a41.12,41.12,0,0,1-4.38-.22Zm2.41,16.55a15.34,15.34,0,0,0,2.44.14c5.17,0,8-2.89,8-7.94,0-4.42-2.47-7.22-7.58-7.22a13.62,13.62,0,0,0-2.83.25Z"/><path class="cls-2" d="M261.61,104.81c0,6.44-3.92,9.86-8.69,9.86-4.94,0-8.41-3.83-8.41-9.5,0-5.94,3.69-9.82,8.69-9.82S261.61,99.26,261.61,104.81Zm-14.52.31c0,4,2.17,7.57,6,7.57s6-3.52,6-7.77c0-3.72-1.94-7.6-6-7.6S247.09,101,247.09,105.12Z"/><path class="cls-2" d="M275.84,95.65h2.42v16.69h8v2H275.84Z"/><path class="cls-2" d="M314.94,104.81c0,6.44-3.91,9.86-8.68,9.86-4.94,0-8.41-3.83-8.41-9.5,0-5.94,3.69-9.82,8.68-9.82S314.94,99.26,314.94,104.81Zm-14.51.31c0,4,2.16,7.57,6,7.57s6-3.52,6-7.77c0-3.72-1.94-7.6-6-7.6S300.43,101,300.43,105.12Z"/><path class="cls-2" d="M329.18,95.9a25.17,25.17,0,0,1,4.63-.38c2.58,0,4.25.47,5.41,1.52a4.63,4.63,0,0,1,1.47,3.55,4.92,4.92,0,0,1-3.52,4.78v.08c1.44.5,2.3,1.83,2.75,3.78a29.5,29.5,0,0,0,1.44,5.13h-2.5a25,25,0,0,1-1.25-4.47c-.55-2.58-1.55-3.55-3.74-3.63h-2.28v8.1h-2.41Zm2.41,8.53h2.47c2.58,0,4.22-1.42,4.22-3.56,0-2.41-1.75-3.47-4.3-3.5a9.87,9.87,0,0,0-2.39.23Z"/><path class="cls-2" d="M371.86,111.42a8.5,8.5,0,0,0,4.33,1.22c2.47,0,3.91-1.3,3.91-3.19s-1-2.75-3.53-3.72c-3.05-1.08-4.94-2.67-4.94-5.3,0-2.92,2.42-5.08,6.06-5.08a8.38,8.38,0,0,1,4.13.92l-.67,2a7.36,7.36,0,0,0-3.55-.89c-2.55,0-3.52,1.52-3.52,2.8,0,1.75,1.13,2.61,3.71,3.61,3.17,1.22,4.78,2.75,4.78,5.49,0,2.89-2.14,5.39-6.55,5.39a9.56,9.56,0,0,1-4.77-1.2Z"/><path class="cls-2" d="M399.38,95.65v18.71H397V95.65Z"/><path class="cls-2" d="M418.26,97.71h-5.69V95.65h13.85v2.06H420.7v16.65h-2.44Z"/><path class="cls-2" d="M459.6,108.48l-1.94,5.88h-2.5l6.36-18.71h2.91l6.39,18.71h-2.59l-2-5.88Zm6.14-1.89-1.84-5.39c-.41-1.22-.69-2.33-1-3.41h-.05c-.28,1.11-.59,2.25-.95,3.39l-1.83,5.41Z"/><path class="cls-2" d="M500.31,106.15c-.13-2.61-.3-5.75-.27-8.08H500c-.63,2.19-1.41,4.52-2.36,7.1l-3.3,9.08h-1.83l-3-8.91c-.88-2.64-1.63-5-2.16-7.27h-.06c0,2.33-.19,5.47-.36,8.27l-.5,8h-2.3l1.3-18.71h3.09l3.19,9c.77,2.31,1.41,4.36,1.88,6.3h.09c.47-1.89,1.14-3.94,2-6.3l3.33-9H502l1.17,18.71h-2.36Z"/><path class="cls-2" d="M527.65,105.59h-7.28v6.75h8.11v2H518V95.65h10.1v2h-7.69v5.91h7.28Z"/><path class="cls-2" d="M546.71,97.71H541V95.65h13.85v2.06h-5.72v16.65h-2.44Z"/><path class="cls-1" d="M150.14,155.47s-.06-9.72-.14-24.3l-.11-53.44L150,24.29c.08-14.57.14-24.29.14-24.29s.05,9.72.13,24.29.08,34,.12,53.44-.09,38.87-.12,53.44S150.14,155.47,150.14,155.47Z"/><polygon class="cls-3" points="100.55 35.93 111.83 55.47 123.11 35.93 100.55 35.93"/><polygon class="cls-4" points="75.42 35.93 86.7 55.47 97.98 35.93 75.42 35.93"/><polygon class="cls-5" points="50.28 35.93 61.56 55.47 72.84 35.93 50.28 35.93"/><polygon class="cls-6" points="25.14 35.93 36.42 55.47 47.7 35.93 25.14 35.93"/><polygon class="cls-7" points="0 35.93 11.28 55.47 22.56 35.93 0 35.93"/><polygon class="cls-8" points="87.98 64.91 99.27 45.38 110.55 64.91 87.98 64.91"/><polygon class="cls-9" points="62.85 64.91 74.13 45.38 85.41 64.91 62.85 64.91"/><polygon class="cls-10" points="37.71 64.91 48.99 45.38 60.27 64.91 37.71 64.91"/><polygon class="cls-11" points="12.57 64.91 23.85 45.38 35.13 64.91 12.57 64.91"/><polygon class="cls-12" points="75.42 68.04 86.7 87.58 97.98 68.04 75.42 68.04"/><polygon class="cls-13" points="50.28 68.04 61.56 87.58 72.84 68.04 50.28 68.04"/><polygon class="cls-14" points="25.14 68.04 36.42 87.58 47.7 68.04 25.14 68.04"/><polygon class="cls-15" points="50.28 99.99 61.56 119.53 72.84 99.99 50.28 99.99"/><polygon class="cls-16" points="62.85 95.97 74.13 76.44 85.41 95.97 62.85 95.97"/><polygon class="cls-17" points="37.71 95.97 48.99 76.44 60.27 95.97 37.71 95.97"/></g></g></svg>